PathFileType	4	(X/Y/Z)	 s02c0302.trc
DataRate	CameraRate	NumFrames	NumMarkers	Units	OrigDataRate	OrigDataStartFrame	OrigNumFrames
200	200	5	51	mm	200	251	2000
Frame#	Time	racr			lacr			c7			jug			rlel			rdr			llel			ldr			s2			lic			ric			lasi			rasi			rpsi			lpsi			rgt			lgt			rth1			rth2			rth3			rth4			rlfc			rmfc			rsh1			rsh2			rsh3			rsh4			rlmal			rmmal			rcal			rtoe			rmt5			rmt1			lth1			lth2			lth4			lth3			llfc			lmfc			lsh1			lsh2			lsh3			lsh4			llmal			lmmal			lcal			ltoe			lmt5			SBIKE			LBIKE			RBIKE			
		X1	Y1	Z1	X2	Y2	Z2	X3	Y3	Z3	X4	Y4	Z4	X5	Y5	Z5	X6	Y6	Z6	X7	Y7	Z7	X8	Y8	Z8	X9	Y9	Z9	X10	Y10	Z10	X11	Y11	Z11	X12	Y12	Z12	X13	Y13	Z13	X14	Y14	Z14	X15	Y15	Z15	X16	Y16	Z16	X17	Y17	Z17	X18	Y18	Z18	X19	Y19	Z19	X20	Y20	Z20	X21	Y21	Z21	X22	Y22	Z22	X23	Y23	Z23	X24	Y24	Z24	X25	Y25	Z25	X26	Y26	Z26	X27	Y27	Z27	X28	Y28	Z28	X29	Y29	Z29	X30	Y30	Z30	X31	Y31	Z31	X32	Y32	Z32	X33	Y33	Z33	X34	Y34	Z34	X35	Y35	Z35	X36	Y36	Z36	X37	Y37	Z37	X38	Y38	Z38	X39	Y39	Z39	X40	Y40	Z40	X41	Y41	Z41	X42	Y42	Z42	X43	Y43	Z43	X44	Y44	Z44	X45	Y45	Z45	X46	Y46	Z46	X47	Y47	Z47	X48	Y48	Z48	X49	Y49	Z49	X50	Y50	Z50	X51	Y51	Z51	
251	1.2550	487.238278	1279.397016	-120.775992	501.533573	1280.796151	-465.792247	519.158744	1300.938735	-296.906068	450.333996	1180.786473	-295.843824	606.856181	1037.957248	-104.758183	735.646639	846.309524	-126.365856	584.181869	1024.118648	-525.149989	725.818796	841.521912	-473.576568	2.956890	1125.011290	-332.974142	143.477891	1092.684438	-455.711382	119.157876	1107.740933	-172.468008	185.475804	1055.371653	-426.586253	170.910416	1084.469488	-201.236835	14.322526	1147.987449	-282.564479	34.384452	1149.280405	-372.091644	85.757799	1046.006686	-128.908695	83.556923	1007.400346	-492.989434	174.987480	1018.482617	-124.816471	262.375646	1007.200428	-132.096202	333.709925	966.402211	-106.734677	272.614004	1029.024962	-161.597583	455.270251	877.417608	-139.997465	452.006353	857.597267	-251.348439	444.921481	764.320483	-124.699353	434.660007	676.712452	-144.837389	390.399561	603.969872	-139.471296	450.839383	675.359476	-180.359052	342.254315	495.455678	-146.950813	351.423027	515.961234	-226.364346	267.736055	449.564828	-191.661295	551.758987	427.380304	-185.536489	442.027614	415.514409	-128.762839	470.540461	429.080158	-236.073966	189.519242	912.351977	-507.414763	260.526141	862.048010	-503.469953	285.010848	882.435357	-484.931666	295.747464	780.020501	-503.694116	352.259460	696.194204	-479.506765	351.860761	667.528217	-375.190321	302.916950	604.991961	-498.675770	269.651831	526.794876	-482.356538	199.227203	470.520315	-486.570149	286.007519	518.191988	-445.935077	123.981653	400.566645	-470.482446	137.898652	388.146299	-394.179852	45.940043	396.167861	-430.840623	254.088565	199.259481	-439.703432	158.596972	251.470074	-499.349959	-126.760148	872.045806	-308.285690	37.142507	86.643966	-514.298658	33.854850	82.956555	-114.409239	
252	1.2600	487.294063	1279.430375	-120.855534	501.521176	1280.818164	-465.795067	519.197376	1300.880655	-296.984843	450.361178	1180.805349	-295.920616	606.940059	1038.004684	-104.767328	735.646655	846.307857	-126.354001	584.222148	1024.144730	-525.058290	725.838118	841.523658	-473.584165	2.966550	1125.139058	-333.094477	143.398692	1092.735404	-455.721193	119.225735	1107.701755	-172.476962	185.423930	1055.406185	-426.688043	170.947771	1084.431989	-201.325932	14.330481	1148.014192	-282.480085	34.148269	1149.217750	-371.895650	85.774313	1045.977417	-128.888185	83.429578	1007.533916	-493.018782	174.982685	1018.449854	-124.823190	262.364104	1007.146783	-132.081113	333.688354	966.335497	-106.751854	272.611048	1028.996149	-161.616122	455.238284	877.337052	-140.045485	451.948394	857.549251	-251.383599	444.855919	764.270175	-124.726446	434.568104	676.630562	-144.874204	390.282902	603.920819	-139.502699	450.719593	675.295653	-180.424662	342.093986	495.420093	-146.940369	351.304990	515.930086	-226.373323	267.625577	449.473875	-191.640054	551.669231	427.548161	-185.541388	441.956069	415.558969	-128.770557	470.468506	429.168394	-236.086138	189.428081	912.506860	-507.490026	260.579124	862.270227	-503.681028	285.052409	882.682355	-485.176756	295.831802	780.314140	-503.789806	352.339310	696.507518	-479.547806	352.035444	667.722922	-375.153487	303.145483	605.222111	-498.742833	269.983320	526.966060	-482.401497	199.595326	470.638689	-486.623656	286.339797	518.359453	-445.995282	124.447338	400.580604	-470.559649	138.353794	388.118651	-394.239078	46.427936	396.347131	-430.812020	254.080936	198.953630	-439.718021	158.754685	251.389847	-499.387271	-126.745241	872.056245	-308.286634	37.136075	86.642706	-514.299899	33.843946	82.975834	-114.420982	
253	1.2650	487.338898	1279.481146	-120.937271	501.517274	1280.846550	-465.819946	519.242746	1300.795856	-297.072315	450.366733	1180.794823	-295.974320	607.008571	1038.056346	-104.775544	735.673429	846.317447	-126.319018	584.230959	1024.137919	-525.196511	725.868880	841.530165	-473.580489	2.975007	1125.266863	-333.214714	143.319861	1092.796248	-455.750120	119.259273	1107.669653	-172.486001	185.372910	1055.427864	-426.800548	170.965746	1084.393219	-201.364843	14.323607	1148.053282	-282.400683	34.069611	1149.324091	-371.789297	85.790101	1045.966948	-128.871440	83.325327	1007.682695	-493.030871	174.978931	1018.427954	-124.834300	262.348957	1007.082072	-132.109223	333.672688	966.305820	-106.769719	272.599021	1028.969899	-161.623892	455.209624	877.291379	-140.095823	451.876957	857.499836	-251.449894	444.435269	764.221683	-125.072933	434.497229	676.611004	-144.928594	390.234114	603.844627	-139.467339	450.668144	675.262585	-180.429309	342.008396	495.367677	-146.990338	351.202019	515.887456	-226.365305	267.568541	449.371581	-191.644258	551.605917	427.650942	-185.528916	441.917546	415.594300	-128.775700	470.453345	429.335026	-236.188624	189.381109	912.717761	-507.544375	260.511231	862.652786	-503.614833	284.938590	883.041045	-485.033104	295.906826	780.637543	-503.863576	352.491182	696.738224	-479.625039	352.232914	667.934354	-375.223751	303.373188	605.430695	-498.790036	270.306088	527.121402	-482.443007	199.930307	470.770098	-486.686355	286.618698	518.508912	-446.038486	124.868305	400.583167	-470.608799	138.776594	388.150231	-394.293080	46.876613	396.518417	-430.812471	254.054685	198.696088	-439.713459	158.862895	251.327457	-499.396931	-126.741665	872.055886	-308.286291	37.154251	86.660335	-514.291644	33.839765	82.968728	-114.400264	
254	1.2700	487.369925	1279.520946	-121.021054	501.511833	1280.855176	-465.828531	519.254194	1300.727295	-297.145854	450.321808	1180.762301	-296.059500	607.077509	1038.090474	-104.817250	735.692875	846.323529	-126.308025	584.276517	1024.198507	-524.947661	725.885017	841.541949	-473.579085	2.982273	1125.394691	-333.334838	143.229758	1092.847024	-455.781297	119.306962	1107.634336	-172.495580	185.300823	1055.466064	-426.880628	170.984088	1084.352311	-201.413215	14.340773	1148.118233	-282.291952	33.995527	1149.370303	-371.650923	85.807745	1045.913165	-128.852390	83.252604	1007.808171	-493.062849	174.940575	1018.425222	-124.841935	262.330531	1007.070611	-132.132697	333.646314	966.276492	-106.810144	272.564567	1028.961582	-161.634694	455.158912	877.264678	-140.140674	451.805356	857.479122	-251.469083	444.386163	764.201472	-125.111409	434.799932	676.776971	-144.612987	390.178505	603.817132	-139.496054	450.063779	675.082191	-180.676917	341.920385	495.343248	-147.005506	351.124045	515.856998	-226.377804	267.521105	449.298280	-191.636579	551.581001	427.704417	-185.518777	441.879777	415.614950	-128.773100	470.434038	429.357723	-236.185178	189.377760	912.964067	-507.609251	260.523285	862.951319	-503.676973	284.940212	883.314078	-485.068126	296.005213	780.937868	-503.914270	352.622329	696.891771	-479.751778	352.429910	668.141306	-375.238830	303.573134	605.602058	-498.864596	270.537689	527.262894	-482.490326	200.220153	470.858715	-486.710477	286.898133	518.658107	-446.101525	125.212361	400.610992	-470.661653	139.151751	388.188204	-394.305780	47.251125	396.711430	-430.824842	254.028946	198.490395	-439.728494	159.018664	251.542529	-500.039347	-126.751914	872.052904	-308.272612	37.151100	86.621868	-514.295445	33.487513	83.117535	-114.504473	
255	1.2750	487.428964	1279.562109	-121.127487	501.499618	1280.862987	-465.831999	519.276762	1300.654922	-297.225145	450.240922	1180.769710	-296.158473	607.145145	1038.136100	-104.884292	735.729842	846.326807	-126.317884	584.246313	1024.190137	-525.147849	725.895936	841.567152	-473.619653	2.988360	1125.522525	-333.454836	143.168755	1092.890225	-455.831626	119.346585	1107.574021	-172.504833	185.279850	1055.500950	-426.955921	171.006725	1084.306493	-201.487541	14.337479	1148.140281	-282.232409	33.967946	1149.402207	-371.534874	85.812687	1045.888463	-128.824027	83.216877	1007.943820	-493.106842	174.956796	1018.421767	-124.859758	262.311251	1007.056003	-132.145836	333.632544	966.260255	-106.839134	272.547130	1028.956258	-161.684586	455.142310	877.248135	-140.215223	451.737214	857.442924	-251.521937	444.357740	764.190168	-125.165607	434.407987	676.571453	-145.008601	390.164591	603.797701	-139.535990	450.606230	675.245088	-180.503229	341.916115	495.308243	-147.028533	351.128759	515.818255	-226.394746	267.511887	449.285593	-191.637281	551.586106	427.703083	-185.533515	441.866887	415.600366	-128.775713	470.417637	429.349752	-236.188524	189.396508	913.187914	-507.611168	260.574139	863.164200	-503.678250	284.979511	883.576325	-485.079238	296.079515	781.220628	-503.951471	352.719336	697.109144	-479.854333	352.636321	668.329129	-375.307189	303.754687	605.760631	-498.948958	270.715191	527.369926	-482.528735	200.469582	470.958866	-486.756623	287.134634	518.811071	-446.157220	125.525901	400.650923	-470.709549	139.513894	388.215749	-394.377469	47.670191	396.852358	-430.921649	254.014455	198.343105	-439.713508	159.026379	251.451374	-499.967682	-126.749929	872.055775	-308.263456	37.139562	86.642325	-514.296644	33.831354	82.974487	-114.415423	
